<mxfile host="app.diagrams.net" modified="2022-02-10T04:08:40.037Z" agent="5.0 (Macintosh; Intel Mac OS X 10_15_7) AppleWebKit/537.36 (KHTML, like Gecko) Chrome/81.0.4044.138 Safari/537.36" etag="DMFqmBcPph1Ng32O_drv" version="16.5.3" type="github">
  <diagram id="N_wYpfJmd_OI2wFdYBPv" name="Page-1">
    <mxGraphModel dx="879" dy="461" grid="1" gridSize="10" guides="1" tooltips="1" connect="1" arrows="1" fold="1" page="1" pageScale="1" pageWidth="400" pageHeight="300" math="1" shadow="0">
      <root>
        <mxCell id="0" />
        <mxCell id="1" parent="0" />
        <mxCell id="Wi08d8gZECOq-nC32ia2-1" value="" style="verticalLabelPosition=bottom;verticalAlign=top;html=1;shape=mxgraph.basic.rect;fillColor2=none;strokeWidth=1;size=20;indent=5;" parent="1" vertex="1">
          <mxGeometry x="130" y="200" width="190" height="100" as="geometry" />
        </mxCell>
        <mxCell id="Wi08d8gZECOq-nC32ia2-2" value="" style="verticalLabelPosition=bottom;verticalAlign=top;html=1;shape=mxgraph.basic.rect;fillColor2=none;strokeWidth=1;size=20;indent=5;" parent="1" vertex="1">
          <mxGeometry x="30" y="260" width="90" height="40" as="geometry" />
        </mxCell>
        <mxCell id="Wi08d8gZECOq-nC32ia2-3" value="" style="verticalLabelPosition=bottom;verticalAlign=top;html=1;shape=mxgraph.basic.rect;fillColor2=none;strokeWidth=1;size=20;indent=5;" parent="1" vertex="1">
          <mxGeometry x="30" y="200" width="90" height="50" as="geometry" />
        </mxCell>
        <mxCell id="Wi08d8gZECOq-nC32ia2-4" value="" style="rounded=0;whiteSpace=wrap;html=1;" parent="1" vertex="1">
          <mxGeometry x="30" y="130" width="140" height="60" as="geometry" />
        </mxCell>
        <mxCell id="Wi08d8gZECOq-nC32ia2-5" value="" style="rounded=0;whiteSpace=wrap;html=1;" parent="1" vertex="1">
          <mxGeometry x="180" y="130" width="140" height="60" as="geometry" />
        </mxCell>
        <mxCell id="Wi08d8gZECOq-nC32ia2-6" value="" style="rounded=0;whiteSpace=wrap;html=1;" parent="1" vertex="1">
          <mxGeometry x="330" y="10" width="70" height="290" as="geometry" />
        </mxCell>
        <mxCell id="Wi08d8gZECOq-nC32ia2-7" value="" style="rounded=0;whiteSpace=wrap;html=1;" parent="1" vertex="1">
          <mxGeometry x="110" y="60" width="210" height="60" as="geometry" />
        </mxCell>
        <mxCell id="Wi08d8gZECOq-nC32ia2-8" value="" style="rounded=0;whiteSpace=wrap;html=1;" parent="1" vertex="1">
          <mxGeometry x="110" y="10" width="210" height="40" as="geometry" />
        </mxCell>
        <mxCell id="Wi08d8gZECOq-nC32ia2-9" value="" style="verticalLabelPosition=bottom;verticalAlign=top;html=1;shape=mxgraph.basic.rect;fillColor2=none;strokeWidth=1;size=20;indent=5;" parent="1" vertex="1">
          <mxGeometry x="30" y="10" width="70" height="110" as="geometry" />
        </mxCell>
        <mxCell id="Wi08d8gZECOq-nC32ia2-10" value="&lt;b&gt;DAIL-FLCore&lt;/b&gt;" style="text;html=1;strokeColor=none;fillColor=none;align=center;verticalAlign=middle;whiteSpace=wrap;rounded=0;" parent="1" vertex="1">
          <mxGeometry x="180" y="190" width="90" height="30" as="geometry" />
        </mxCell>
        <mxCell id="Wi08d8gZECOq-nC32ia2-12" value="&lt;font style=&quot;font-size: 10px&quot;&gt;&lt;b&gt;Model-&lt;br style=&quot;font-size: 10px&quot;&gt;Tuning&lt;br style=&quot;font-size: 10px&quot;&gt;Component&lt;/b&gt;&lt;/font&gt;" style="text;html=1;strokeColor=none;fillColor=none;align=center;verticalAlign=middle;whiteSpace=wrap;rounded=0;" parent="1" vertex="1">
          <mxGeometry x="330" y="260" width="70" height="30" as="geometry" />
        </mxCell>
        <mxCell id="Wi08d8gZECOq-nC32ia2-13" value="&lt;b&gt;ModelZoo&lt;/b&gt;" style="text;html=1;strokeColor=none;fillColor=none;align=center;verticalAlign=middle;whiteSpace=wrap;rounded=0;" parent="1" vertex="1">
          <mxGeometry x="55" y="120" width="90" height="30" as="geometry" />
        </mxCell>
        <mxCell id="Wi08d8gZECOq-nC32ia2-14" value="&lt;b&gt;DataZoo&lt;/b&gt;" style="text;html=1;strokeColor=none;fillColor=none;align=center;verticalAlign=middle;whiteSpace=wrap;rounded=0;" parent="1" vertex="1">
          <mxGeometry x="205" y="120" width="90" height="30" as="geometry" />
        </mxCell>
        <mxCell id="Wi08d8gZECOq-nC32ia2-15" value="&lt;b&gt;ML engine&lt;/b&gt;" style="text;html=1;strokeColor=none;fillColor=none;align=center;verticalAlign=middle;whiteSpace=wrap;rounded=0;" parent="1" vertex="1">
          <mxGeometry x="30" y="250" width="90" height="30" as="geometry" />
        </mxCell>
        <mxCell id="Wi08d8gZECOq-nC32ia2-16" value="TF, PyTorch, etc." style="text;html=1;strokeColor=none;fillColor=none;align=center;verticalAlign=middle;whiteSpace=wrap;rounded=0;" parent="1" vertex="1">
          <mxGeometry x="25" y="270" width="100" height="30" as="geometry" />
        </mxCell>
        <mxCell id="Wi08d8gZECOq-nC32ia2-17" value="&lt;b&gt;Graph learning backend&lt;/b&gt;" style="text;html=1;strokeColor=none;fillColor=none;align=center;verticalAlign=middle;whiteSpace=wrap;rounded=0;" parent="1" vertex="1">
          <mxGeometry x="30" y="200" width="90" height="30" as="geometry" />
        </mxCell>
        <mxCell id="Wi08d8gZECOq-nC32ia2-18" value="DGL, PyG, etc." style="text;html=1;strokeColor=none;fillColor=none;align=center;verticalAlign=middle;whiteSpace=wrap;rounded=0;" parent="1" vertex="1">
          <mxGeometry x="25" y="220" width="100" height="30" as="geometry" />
        </mxCell>
        <mxCell id="Wi08d8gZECOq-nC32ia2-19" value="TBD" style="text;html=1;strokeColor=none;fillColor=none;align=center;verticalAlign=middle;whiteSpace=wrap;rounded=0;" parent="1" vertex="1">
          <mxGeometry x="175" y="235" width="100" height="30" as="geometry" />
        </mxCell>
        <mxCell id="Wi08d8gZECOq-nC32ia2-21" value="Encoder" style="rounded=0;whiteSpace=wrap;html=1;fontSize=10;" parent="1" vertex="1">
          <mxGeometry x="35" y="145" width="55" height="15" as="geometry" />
        </mxCell>
        <mxCell id="Wi08d8gZECOq-nC32ia2-22" value="GNN" style="rounded=0;whiteSpace=wrap;html=1;fontSize=10;" parent="1" vertex="1">
          <mxGeometry x="110" y="145" width="55" height="15" as="geometry" />
        </mxCell>
        <mxCell id="Wi08d8gZECOq-nC32ia2-23" value="Decoder" style="rounded=0;whiteSpace=wrap;html=1;fontSize=10;" parent="1" vertex="1">
          <mxGeometry x="35" y="170" width="55" height="15" as="geometry" />
        </mxCell>
        <mxCell id="Wi08d8gZECOq-nC32ia2-24" value="Readout" style="rounded=0;whiteSpace=wrap;html=1;fontSize=10;" parent="1" vertex="1">
          <mxGeometry x="110" y="170" width="55" height="15" as="geometry" />
        </mxCell>
        <mxCell id="Wi08d8gZECOq-nC32ia2-25" value="Dataset" style="rounded=0;whiteSpace=wrap;html=1;fontSize=10;" parent="1" vertex="1">
          <mxGeometry x="187.5" y="145" width="55" height="15" as="geometry" />
        </mxCell>
        <mxCell id="Wi08d8gZECOq-nC32ia2-26" value="Transform" style="rounded=0;whiteSpace=wrap;html=1;fontSize=10;" parent="1" vertex="1">
          <mxGeometry x="250" y="145" width="65" height="15" as="geometry" />
        </mxCell>
        <mxCell id="Wi08d8gZECOq-nC32ia2-27" value="Splitter&lt;span style=&quot;color: rgba(0 , 0 , 0 , 0) ; font-family: monospace ; font-size: 0px&quot;&gt;%3CmxGraphModel%3E%3Croot%3E%3CmxCell%20id%3D%220%22%2F%3E%3CmxCell%20id%3D%221%22%20parent%3D%220%22%2F%3E%3CmxCell%20id%3D%222%22%20value%3D%22Transform%22%20style%3D%22rounded%3D0%3BwhiteSpace%3Dwrap%3Bhtml%3D1%3BfontSize%3D10%3B%22%20vertex%3D%221%22%20parent%3D%221%22%3E%3CmxGeometry%20x%3D%22260%22%20y%3D%22145%22%20width%3D%2255%22%20height%3D%2215%22%20as%3D%22geometry%22%2F%3E%3C%2FmxCell%3E%3C%2Froot%3E%3C%2FmxGraphModel%3E&lt;/span&gt;" style="rounded=0;whiteSpace=wrap;html=1;fontSize=10;" parent="1" vertex="1">
          <mxGeometry x="187.5" y="170" width="55" height="15" as="geometry" />
        </mxCell>
        <mxCell id="Wi08d8gZECOq-nC32ia2-28" value="DataLoader" style="rounded=0;whiteSpace=wrap;html=1;fontSize=10;" parent="1" vertex="1">
          <mxGeometry x="250" y="170" width="65" height="15" as="geometry" />
        </mxCell>
        <mxCell id="Wi08d8gZECOq-nC32ia2-29" value="&lt;b&gt;Trainer&lt;/b&gt;" style="text;html=1;strokeColor=none;fillColor=none;align=center;verticalAlign=middle;whiteSpace=wrap;rounded=0;" parent="1" vertex="1">
          <mxGeometry x="170" y="50" width="90" height="30" as="geometry" />
        </mxCell>
        <mxCell id="Wi08d8gZECOq-nC32ia2-30" value="&lt;b&gt;Attack&amp;amp;&lt;br&gt;Defence&lt;br&gt;&lt;/b&gt;" style="text;html=1;strokeColor=none;fillColor=none;align=center;verticalAlign=middle;whiteSpace=wrap;rounded=0;" parent="1" vertex="1">
          <mxGeometry x="20" y="10" width="90" height="30" as="geometry" />
        </mxCell>
        <mxCell id="Wi08d8gZECOq-nC32ia2-32" value="&lt;b&gt;FGL Runner&lt;/b&gt;" style="text;html=1;strokeColor=none;fillColor=none;align=center;verticalAlign=middle;whiteSpace=wrap;rounded=0;" parent="1" vertex="1">
          <mxGeometry x="175" width="90" height="30" as="geometry" />
        </mxCell>
        <mxCell id="Wi08d8gZECOq-nC32ia2-35" value="$$\times$$" style="text;html=1;strokeColor=none;fillColor=none;align=center;verticalAlign=middle;whiteSpace=wrap;rounded=0;fontSize=10;" parent="1" vertex="1">
          <mxGeometry x="190" y="77.5" width="60" height="30" as="geometry" />
        </mxCell>
        <mxCell id="Wi08d8gZECOq-nC32ia2-37" value="Full-batch" style="rounded=1;whiteSpace=wrap;html=1;fontSize=10;" parent="1" vertex="1">
          <mxGeometry x="120" y="77.5" width="60" height="15" as="geometry" />
        </mxCell>
        <mxCell id="Wi08d8gZECOq-nC32ia2-38" value="Graph sampling" style="rounded=1;whiteSpace=wrap;html=1;fontSize=10;" parent="1" vertex="1">
          <mxGeometry x="120" y="100" width="90" height="15" as="geometry" />
        </mxCell>
        <mxCell id="Wi08d8gZECOq-nC32ia2-39" value="Node-level" style="rounded=1;whiteSpace=wrap;html=1;fontSize=10;" parent="1" vertex="1">
          <mxGeometry x="240" y="72.5" width="70" height="15" as="geometry" />
        </mxCell>
        <mxCell id="Wi08d8gZECOq-nC32ia2-40" value="Link-level" style="rounded=1;whiteSpace=wrap;html=1;fontSize=10;" parent="1" vertex="1">
          <mxGeometry x="240" y="87.5" width="70" height="15" as="geometry" />
        </mxCell>
        <mxCell id="Wi08d8gZECOq-nC32ia2-41" value="Graph-level" style="rounded=1;whiteSpace=wrap;html=1;fontSize=10;" parent="1" vertex="1">
          <mxGeometry x="240" y="102.5" width="70" height="15" as="geometry" />
        </mxCell>
        <mxCell id="Wi08d8gZECOq-nC32ia2-42" value="Distributed" style="rounded=0;whiteSpace=wrap;html=1;fontSize=10;" parent="1" vertex="1">
          <mxGeometry x="133" y="25" width="67.5" height="15" as="geometry" />
        </mxCell>
        <mxCell id="Wi08d8gZECOq-nC32ia2-43" value="Simulated" style="rounded=0;whiteSpace=wrap;html=1;fontSize=10;" parent="1" vertex="1">
          <mxGeometry x="230" y="25" width="67.5" height="15" as="geometry" />
        </mxCell>
        <mxCell id="Wi08d8gZECOq-nC32ia2-44" value="" style="verticalLabelPosition=bottom;verticalAlign=top;html=1;shape=mxgraph.basic.rect;fillColor2=none;strokeWidth=1;size=20;indent=5;" parent="1" vertex="1">
          <mxGeometry x="340" y="15" width="50" height="85" as="geometry" />
        </mxCell>
        <mxCell id="Wi08d8gZECOq-nC32ia2-45" value="" style="verticalLabelPosition=bottom;verticalAlign=top;html=1;shape=mxgraph.basic.rect;fillColor2=none;strokeWidth=1;size=20;indent=5;" parent="1" vertex="1">
          <mxGeometry x="340" y="110" width="50" height="80" as="geometry" />
        </mxCell>
        <mxCell id="Wi08d8gZECOq-nC32ia2-46" value="" style="verticalLabelPosition=bottom;verticalAlign=top;html=1;shape=mxgraph.basic.rect;fillColor2=none;strokeWidth=1;size=20;indent=5;" parent="1" vertex="1">
          <mxGeometry x="340" y="200" width="50" height="50" as="geometry" />
        </mxCell>
        <mxCell id="Wi08d8gZECOq-nC32ia2-47" value="&lt;b&gt;HPO&lt;/b&gt;" style="text;html=1;strokeColor=none;fillColor=none;align=center;verticalAlign=middle;whiteSpace=wrap;rounded=0;" parent="1" vertex="1">
          <mxGeometry x="345" y="10" width="40" height="20" as="geometry" />
        </mxCell>
        <mxCell id="Wi08d8gZECOq-nC32ia2-48" value="&lt;b&gt;Person-&lt;br&gt;alization&lt;br&gt;&lt;/b&gt;" style="text;html=1;strokeColor=none;fillColor=none;align=center;verticalAlign=middle;whiteSpace=wrap;rounded=0;" parent="1" vertex="1">
          <mxGeometry x="340" y="107.5" width="50" height="30" as="geometry" />
        </mxCell>
        <mxCell id="Wi08d8gZECOq-nC32ia2-49" value="&lt;b&gt;Monitor&lt;/b&gt;" style="text;html=1;strokeColor=none;fillColor=none;align=center;verticalAlign=middle;whiteSpace=wrap;rounded=0;" parent="1" vertex="1">
          <mxGeometry x="345" y="195" width="40" height="20" as="geometry" />
        </mxCell>
        <mxCell id="Wi08d8gZECOq-nC32ia2-50" value="Metrics" style="rounded=0;whiteSpace=wrap;html=1;fontSize=10;" parent="1" vertex="1">
          <mxGeometry x="343.75" y="215" width="42.5" height="15" as="geometry" />
        </mxCell>
        <mxCell id="Wi08d8gZECOq-nC32ia2-51" value="WandB" style="rounded=0;whiteSpace=wrap;html=1;fontSize=10;" parent="1" vertex="1">
          <mxGeometry x="343.75" y="230" width="42.5" height="15" as="geometry" />
        </mxCell>
        <mxCell id="Wi08d8gZECOq-nC32ia2-52" value="Fidelity" style="rounded=1;whiteSpace=wrap;html=1;fontSize=10;" parent="1" vertex="1">
          <mxGeometry x="345" y="30" width="40" height="15" as="geometry" />
        </mxCell>
        <mxCell id="Wi08d8gZECOq-nC32ia2-53" value="$$\times$$" style="text;html=1;strokeColor=none;fillColor=none;align=center;verticalAlign=middle;whiteSpace=wrap;rounded=0;fontSize=10;" parent="1" vertex="1">
          <mxGeometry x="346.88" y="40" width="36.25" height="22.5" as="geometry" />
        </mxCell>
        <mxCell id="Wi08d8gZECOq-nC32ia2-54" value="Explore" style="rounded=1;whiteSpace=wrap;html=1;fontSize=10;" parent="1" vertex="1">
          <mxGeometry x="342.5" y="57.5" width="45" height="15" as="geometry" />
        </mxCell>
        <mxCell id="Wi08d8gZECOq-nC32ia2-55" value="$$\times$$" style="text;html=1;strokeColor=none;fillColor=none;align=center;verticalAlign=middle;whiteSpace=wrap;rounded=0;fontSize=10;" parent="1" vertex="1">
          <mxGeometry x="346.88" y="66.25" width="36.25" height="21.25" as="geometry" />
        </mxCell>
        <mxCell id="Wi08d8gZECOq-nC32ia2-56" value="Exploit" style="rounded=1;whiteSpace=wrap;html=1;fontSize=10;" parent="1" vertex="1">
          <mxGeometry x="342.5" y="82.5" width="45" height="15" as="geometry" />
        </mxCell>
        <mxCell id="Wi08d8gZECOq-nC32ia2-57" value="Param.&lt;br&gt;grouping" style="rounded=0;whiteSpace=wrap;html=1;fontSize=10;" parent="1" vertex="1">
          <mxGeometry x="341.25" y="146.25" width="47.5" height="27.5" as="geometry" />
        </mxCell>
        <mxCell id="mwMHEHDPcprdr8kQJpDi-1" value="Active" style="rounded=1;whiteSpace=wrap;html=1;fontSize=10;" vertex="1" parent="1">
          <mxGeometry x="40" y="41" width="50" height="15" as="geometry" />
        </mxCell>
        <mxCell id="mwMHEHDPcprdr8kQJpDi-2" value="Passive" style="rounded=1;whiteSpace=wrap;html=1;fontSize=10;" vertex="1" parent="1">
          <mxGeometry x="40" y="56.5" width="50" height="15" as="geometry" />
        </mxCell>
        <mxCell id="mwMHEHDPcprdr8kQJpDi-3" value="$$\times$$" style="text;html=1;strokeColor=none;fillColor=none;align=center;verticalAlign=middle;whiteSpace=wrap;rounded=0;fontSize=10;" vertex="1" parent="1">
          <mxGeometry x="35" y="64" width="60" height="30" as="geometry" />
        </mxCell>
        <mxCell id="mwMHEHDPcprdr8kQJpDi-5" value="Attack" style="rounded=1;whiteSpace=wrap;html=1;fontSize=10;" vertex="1" parent="1">
          <mxGeometry x="40" y="87.5" width="50" height="15" as="geometry" />
        </mxCell>
        <mxCell id="mwMHEHDPcprdr8kQJpDi-6" value="Defense" style="rounded=1;whiteSpace=wrap;html=1;fontSize=10;" vertex="1" parent="1">
          <mxGeometry x="40" y="102.5" width="50" height="15" as="geometry" />
        </mxCell>
      </root>
    </mxGraphModel>
  </diagram>
</mxfile>
